<svg width="377.953" height="377.953" xmlns="http://www.w3.org/2000/svg" xmlns:xlink="http://www.w3.org/1999/xlink" id="svg3356" overflow="hidden"><defs id="defs3360"></defs><g id="g3364" transform="matrix(3.77953 0 0 3.77953 1.70079e-06 1.70079e-06)"><g id="g3315" stroke="#000000" stroke-linecap="square" stroke-linejoin="bevel" fill="none" fill-rule="evenodd" transform="matrix(9.09091 0 0 9.09091 -95.4545 -95.4545)"><g id="g3305" stroke-linejoin="miter" stroke-miterlimit="2" fill="#FFFFFF" fill-opacity="0" font-family="MS Shell Dlg 2" font-weight="400" font-size="8.25"><path d="M21 16C21 18.7614 18.7614 21 16 21 13.2386 21 11 18.7614 11 16 11 13.2386 13.2386 11 16 11 18.7614 11 21 13.2386 21 16Z" id="path3303"/></g><g id="g3309" stroke="none" fill="#000000" font-family="MS Shell Dlg 2" font-weight="400" font-size="8.25"><path d="M16 16 19.5355 19.5355C21.4882 17.5829 21.4882 14.4171 19.5355 12.4645L16 16" id="path3307"/></g><g id="g3313" stroke="none" fill="#000000" font-family="MS Shell Dlg 2" font-weight="400" font-size="8.25"><path d="M16 16 12.4645 12.4645C10.5118 14.4171 10.5118 17.5829 12.4645 19.5355L16 16" id="path3311"/></g></g></g></svg>