<svg width="347.242" height="377.953" xmlns="http://www.w3.org/2000/svg" xmlns:xlink="http://www.w3.org/1999/xlink" id="svg6768" overflow="hidden"><defs id="defs6772"></defs><g id="g6776" transform="matrix(3.77953 0 0 3.77953 9.58828e-07 1.63483e-06)"><g id="g6749" stroke="#000000" stroke-linecap="square" stroke-linejoin="bevel" fill="none" fill-rule="evenodd" transform="matrix(5.97157 0 0 5.97157 -44.8248 -55.766)"><g id="g6731" stroke="none" fill="#1F78B4" font-family="MS Shell Dlg 2" font-weight="400" font-size="8.25"><path d="M18.1083 16C18.1083 18.4853 16.0935 20.5 13.6083 20.5 11.123 20.5 9.10827 18.4853 9.10827 16 9.10827 13.5147 11.123 11.5 13.6083 11.5 16.0935 11.5 18.1083 13.5147 18.1083 16" id="path6729"/></g><g id="g6735" stroke="none" fill="#1F78B4" font-family="MS Shell Dlg 2" font-weight="400" font-size="8.25"><path d="M22.8917 16C22.8917 18.4853 20.877 20.5 18.3917 20.5 15.9065 20.5 13.8917 18.4853 13.8917 16 13.8917 13.5147 15.9065 11.5 18.3917 11.5 20.877 11.5 22.8917 13.5147 22.8917 16" id="path6733"/></g><g id="g6739" stroke="none" fill="#1F78B4" font-family="MS Shell Dlg 2" font-weight="400" font-size="8.25"><path d="M20.5 13.8386C20.5 16.3239 18.4853 18.3386 16 18.3386 13.5147 18.3386 11.5 16.3239 11.5 13.8386 11.5 11.3533 13.5147 9.33858 16 9.33858 18.4853 9.33858 20.5 11.3533 20.5 13.8386" id="path6737"/></g><g id="g6747" stroke="#1F78B4" stroke-width="1.41732" stroke-linejoin="miter" stroke-miterlimit="2" font-family="MS Shell Dlg 2" font-weight="400" font-size="8.25"><path d="M20.3095 22.8275 18.0545 25.0824" id="path6741"/><path d="M15.5365 22.8275 13.2815 25.0824" id="path6743"/><path d="M10.7635 22.8275 8.50857 25.0824" id="path6745"/></g></g></g></svg>