<svg width="377.953" height="377.953" xmlns="http://www.w3.org/2000/svg" xmlns:xlink="http://www.w3.org/1999/xlink" id="svg2979" overflow="hidden"><defs id="defs2983"></defs><g id="g2987" transform="matrix(3.77953 0 0 3.77953 -2.07874e-06 1.70079e-06)"><g id="g2966" stroke="#000000" stroke-linecap="square" stroke-linejoin="bevel" fill="none" fill-rule="evenodd" transform="matrix(9.09091 0 0 9.09091 -95.4545 -95.4545)"><g id="g2960" stroke-linejoin="miter" stroke-miterlimit="2" fill="#FFFFFF" font-family="MS Shell Dlg 2" font-weight="400" font-size="8.25"><path d="M21 16C21 18.7614 18.7614 21 16 21 13.2386 21 11 18.7614 11 16 11 13.2386 13.2386 11 16 11 18.7614 11 21 13.2386 21 16Z" id="path2958"/></g><g id="g2964" stroke="none" fill="#000000" font-family="MS Shell Dlg 2" font-weight="400" font-size="8.25"><path d="M16 16 12.4645 19.5355C14.4171 21.4882 17.5829 21.4882 19.5355 19.5355 21.4882 17.5829 21.4882 14.4171 19.5355 12.4645L16 16" id="path2962"/></g></g></g></svg>