<svg width="721.546" height="377.953" xmlns="http://www.w3.org/2000/svg" xmlns:xlink="http://www.w3.org/1999/xlink" id="svg3983" overflow="hidden"><defs id="defs3987"></defs><g id="g3991" transform="matrix(3.77953 0 0 3.77953 230.773 -324.024)"><g id="g3699" stroke="#000000" stroke-linecap="square" stroke-linejoin="bevel" fill="none" fill-rule="evenodd" transform="matrix(9.09091 0 0 9.09091 -111.059 -9.7233)"><g id="g3685" stroke-linejoin="miter" stroke-miterlimit="2" fill="#FFFFFF" font-family="MS Shell Dlg 2" font-weight="400" font-size="8.25"><path d="M26 11 26 21 6 21 6 11 26 11" id="path3683"/></g><g id="g3689" stroke-linejoin="miter" stroke-miterlimit="2" fill="#FFFFFF" font-family="MS Shell Dlg 2" font-weight="400" font-size="8.25"><path d="M12 16C12 17.1046 11.1046 18 10 18 8.89543 18 8 17.1046 8 16 8 14.8954 8.89543 14 10 14 11.1046 14 12 14.8954 12 16Z" id="path3687"/></g><g id="g3693" stroke-linejoin="miter" stroke-miterlimit="2" fill="#FFFFFF" font-family="MS Shell Dlg 2" font-weight="400" font-size="8.25"><path d="M18 16C18 17.1046 17.1046 18 16 18 14.8954 18 14 17.1046 14 16 14 14.8954 14.8954 14 16 14 17.1046 14 18 14.8954 18 16Z" id="path3691"/></g><g id="g3697" stroke-linejoin="miter" stroke-miterlimit="2" fill="#FFFFFF" font-family="MS Shell Dlg 2" font-weight="400" font-size="8.25"><path d="M24 16C24 17.1046 23.1046 18 22 18 20.8954 18 20 17.1046 20 16 20 14.8954 20.8954 14 22 14 23.1046 14 24 14.8954 24 16Z" id="path3695"/></g></g></g></svg>