<svg width="377.953" height="377.953" xmlns="http://www.w3.org/2000/svg" xmlns:xlink="http://www.w3.org/1999/xlink" id="svg6776" overflow="hidden"><defs id="defs6780"><pattern width="8" height="8" patternUnits="userSpaceOnUse" id="fillpattern8_ff00ff" overflow="hidden"><rect x="0" y="0" width="8" height="8" id="rect17345" fill="#FF00FF" mask="url(#patternmask8-7)"/></pattern><mask x="0" y="0" width="8" height="8" id="patternmask8-7" fill="#FFFFFF"><rect x="2" y="1" width="1" height="1" id="rect17336"/><rect x="6" y="1" width="1" height="1" id="rect17338"/><rect x="2" y="5" width="1" height="1" id="rect17340"/><rect x="6" y="5" width="1" height="1" id="rect17342"/></mask><pattern width="8" height="8" patternUnits="userSpaceOnUse" id="pattern6793" overflow="hidden"><rect x="0" y="0" width="8" height="8" id="rect6791" fill="#FF00FF" mask="url(#patternmask8-7)"/></pattern><mask x="0" y="0" width="8" height="8" id="mask6803" fill="#FFFFFF"><rect x="2" y="1" width="1" height="1" id="rect6795"/><rect x="6" y="1" width="1" height="1" id="rect6797"/><rect x="2" y="5" width="1" height="1" id="rect6799"/><rect x="6" y="5" width="1" height="1" id="rect6801"/></mask></defs><g id="g6805" transform="matrix(3.77953 0 0 3.77953 -1288.17 -3205.31)"><g id="g17358" stroke="#000000" stroke-linecap="square" stroke-linejoin="bevel" fill="none" fill-rule="evenodd" transform="matrix(3.0303 0 0 3.0303 342.343 849.587)"><g id="g17352" stroke="#232323" stroke-linejoin="miter" stroke-miterlimit="2" stroke-dasharray="1 2" fill="url(#fillpattern8_ff00ff)" font-family="MS Shell Dlg 2" font-weight="400" font-size="8.25"><path d="M0 0 32 0 32 32 0 32 0 0" id="path17350"/></g><g id="g17356" stroke="#FF00FF" stroke-linejoin="miter" stroke-miterlimit="2" fill="#CC00CC" fill-opacity="0" font-family="MS Shell Dlg 2" font-weight="400" font-size="8.25"><path d="M0 0 32 0 32 32 0 32 0 0" id="path17354"/></g></g></g></svg>