<svg width="377.953" height="377.953" xmlns="http://www.w3.org/2000/svg" xmlns:xlink="http://www.w3.org/1999/xlink" id="svg6740" overflow="hidden"><defs id="defs6744"><pattern width="8" height="8" patternUnits="userSpaceOnUse" id="fillpattern8_ff7fff-4" overflow="hidden"><rect x="0" y="0" width="8" height="8" id="rect16231-0" fill="#FF7FFF" mask="url(#patternmask8-8)"/></pattern><mask x="0" y="0" width="8" height="8" id="patternmask8-8" fill="#FFFFFF"><rect x="2" y="1" width="1" height="1" id="rect16222-7"/><rect x="6" y="1" width="1" height="1" id="rect16224-9"/><rect x="2" y="5" width="1" height="1" id="rect16226-3"/><rect x="6" y="5" width="1" height="1" id="rect16228-9"/></mask><pattern width="8" height="8" patternUnits="userSpaceOnUse" id="pattern6757" overflow="hidden"><rect x="0" y="0" width="8" height="8" id="rect6755" fill="#FF7FFF" mask="url(#patternmask8-8)"/></pattern><mask x="0" y="0" width="8" height="8" id="mask6767" fill="#FFFFFF"><rect x="2" y="1" width="1" height="1" id="rect6759"/><rect x="6" y="1" width="1" height="1" id="rect6761"/><rect x="2" y="5" width="1" height="1" id="rect6763"/><rect x="6" y="5" width="1" height="1" id="rect6765"/></mask></defs><g id="g6769" transform="matrix(3.77953 0 0 3.77953 -1242.45 -2753.88)"><g id="g16244" stroke="#000000" stroke-linecap="square" stroke-linejoin="bevel" fill="none" fill-rule="evenodd" transform="matrix(3.0303 0 0 3.0303 330.247 730.146)"><g id="g16238" stroke="#232323" stroke-width="0.737008" stroke-linejoin="miter" stroke-miterlimit="2" stroke-dasharray="0.737008 1.47402" stroke-opacity="0" fill="url(#fillpattern8_ff7fff-4)" font-family="MS Shell Dlg 2" font-weight="400" font-size="8.25"><path d="M0 0 32 0 32 32 0 32 0 0" id="path16236"/></g><g id="g16242" stroke="#FF7FFF" stroke-linejoin="miter" stroke-miterlimit="2" fill="#CC00CC" fill-opacity="0" font-family="MS Shell Dlg 2" font-weight="400" font-size="8.25"><path d="M0 0 32 0 32 32 0 32 0 0" id="path16240"/></g></g></g></svg>