<svg width="721.546" height="377.953" xmlns="http://www.w3.org/2000/svg" xmlns:xlink="http://www.w3.org/1999/xlink" id="svg484" overflow="hidden"><defs id="defs488"></defs><g id="g492" transform="matrix(3.77953 0 0 3.77953 -944.882 -755.905)"><g id="g155" stroke="#000000" stroke-linecap="square" stroke-linejoin="bevel" fill="none" fill-rule="evenodd" transform="matrix(9.09091 0 0 9.09091 200 104.545)"><g id="g141" stroke-linejoin="miter" stroke-miterlimit="2" fill="#FFFFFF" font-family="MS Shell Dlg 2" font-weight="400" font-size="8.25"><path d="M26 11 26 21 6 21 6 11 26 11" id="path139"/></g><g id="g145" stroke-linejoin="miter" stroke-miterlimit="2" fill="#000000" font-family="MS Shell Dlg 2" font-weight="400" font-size="8.25"><path d="M10 18C8.89543 18 8 17.1046 8 16 8 14.8954 8.89543 14 10 14 11.1046 14 12 14.8954 12 16 12 17.1046 11.1046 18 10 18Z" id="path143"/></g><g id="g149" stroke-linejoin="miter" stroke-miterlimit="2" fill="#000000" font-family="MS Shell Dlg 2" font-weight="400" font-size="8.25"><path d="M16 18C14.8954 18 14 17.1046 14 16 14 14.8954 14.8954 14 16 14 17.1046 14 18 14.8954 18 16 18 17.1046 17.1046 18 16 18Z" id="path147"/></g><g id="g153" stroke-linejoin="miter" stroke-miterlimit="2" fill="#000000" font-family="MS Shell Dlg 2" font-weight="400" font-size="8.25"><path d="M22 18C20.8954 18 20 17.1046 20 16 20 14.8954 20.8954 14 22 14 23.1046 14 24 14.8954 24 16 24 17.1046 23.1046 18 22 18Z" id="path151"/></g></g></g></svg>